HIERARCHY
ROOT Hips
{
	OFFSET 0.00000 0.00000 0.00000
	CHANNELS 6 Xposition Yposition Zposition Zrotation Yrotation Xrotation 
	JOINT LHipJoint
	{
		OFFSET 0 0 0
		CHANNELS 3 Zrotation Yrotation Xrotation
		JOINT LeftHip
		{
			OFFSET 1.26600 -1.82114 0.91038
			CHANNELS 3 Zrotation Yrotation Xrotation
			JOINT LeftKnee
			{
				OFFSET 2.50076 -6.87080 0.00000
				CHANNELS 3 Zrotation Yrotation Xrotation
				JOINT LeftAnkle
				{
					OFFSET 2.57364 -7.07102 0.00000
					CHANNELS 3 Zrotation Yrotation Xrotation
					JOINT LeftToe
					{
						OFFSET 0.13572 -0.37290 1.97004
						CHANNELS 3 Zrotation Yrotation Xrotation
						End Site
						{
							OFFSET 0.00000 -0.00000 1.01383
						}
					}
				}
			}
		}
	}
	JOINT RHipJoint
	{
		OFFSET 0 0 0
		CHANNELS 3 Zrotation Yrotation Xrotation
		JOINT RightHip
		{
			OFFSET -1.20803 -1.82114 0.91038
			CHANNELS 3 Zrotation Yrotation Xrotation
			JOINT RightKnee
			{
				OFFSET -2.54916 -7.00377 0.00000
				CHANNELS 3 Zrotation Yrotation Xrotation
				JOINT RightAnkle
				{
					OFFSET -2.56374 -7.04382 0.00000
					CHANNELS 3 Zrotation Yrotation Xrotation
					JOINT RightToe
					{
						OFFSET -0.23520 -0.64621 2.09921
						CHANNELS 3 Zrotation Yrotation Xrotation
						End Site
						{
							OFFSET -0.00000 -0.00000 1.10065
						}
					}
				}
			}
		}
	}
	JOINT lowerback
	{
		OFFSET 0 0 0
		CHANNELS 3 Zrotation Yrotation Xrotation
		JOINT Chest
		{
			OFFSET 0.05492 2.10797 -0.12074
			CHANNELS 3 Zrotation Yrotation Xrotation
			JOINT Chest2
			{
				OFFSET 0.04577 2.11592 -0.04483
				CHANNELS 3 Zrotation Yrotation Xrotation
				JOINT lowerneck
				{
					OFFSET 0 0 0
					CHANNELS 3 Zrotation Yrotation Xrotation
					JOINT Neck
					{
						OFFSET -0.10759 1.80167 0.15770
						CHANNELS 3 Zrotation Yrotation Xrotation
						JOINT Head
						{
							OFFSET 0.09237 1.77509 -0.40848
							CHANNELS 3 Zrotation Yrotation Xrotation
							End Site
							{
								OFFSET 0.03805 1.84093 -0.15754
							}
						}
					}
				}
				JOINT LeftCollar
				{
					OFFSET 0 0 0
					CHANNELS 3 Zrotation Yrotation Xrotation
					JOINT LeftShoulder
					{
						OFFSET 3.42372 1.09575 -0.28209
CHANNELS 3 Zrotation Xrotation Yrotation
						JOINT LeftElbow
						{
OFFSET 0 -4.956810 0.000000
CHANNELS 3 Zrotation Xrotation Yrotation
							JOINT LeftWrist
							{
OFFSET 0 -3.409150 0.000000
CHANNELS 3 Zrotation Xrotation Yrotation
								JOINT lhand
								{
									OFFSET 0 0 0
CHANNELS 3 Zrotation Xrotation Yrotation
									JOINT LFingers
									{
OFFSET 0 -0.616400 0.000000
CHANNELS 3 Zrotation Xrotation Yrotation
										End Site
										{
OFFSET 0 -0.496960 0.000000
										}
									}
								}
								JOINT LThumb
								{
OFFSET 0 0.000000 0.000000
CHANNELS 3 Zrotation Xrotation Yrotation
									End Site
									{
OFFSET 0 -0.504550 0.504550
									}
								}
							}
						}
					}
				}
				JOINT RightCollar
				{
					OFFSET 0 0 0
					CHANNELS 3 Zrotation Yrotation Xrotation
					JOINT RightShoulder
					{
						OFFSET -3.24731 1.15872 -0.32221
CHANNELS 3 Zrotation Xrotation Yrotation
						JOINT RightElbow
						{
OFFSET 0 -5.352000 0.000000
CHANNELS 3 Zrotation Xrotation Yrotation
							JOINT RightWrist
							{
OFFSET 0 -3.437210 -0.000000
CHANNELS 3 Zrotation Xrotation Yrotation
								JOINT rhand
								{
									OFFSET 0 0 0
CHANNELS 3 Zrotation Xrotation Yrotation
									JOINT RFingers
									{
OFFSET 0 -0.720090 0.000000
CHANNELS 3 Zrotation Xrotation Yrotation
										End Site
										{
OFFSET 0 -0.580560 0.000000
										}
									}
								}
								JOINT RThumb
								{
OFFSET 0 0.000000 0.000000
CHANNELS 3 Zrotation Xrotation Yrotation
									End Site
									{
OFFSET 0 -0.589420 0.589420
									}
								}
							}
						}
					}
				}
			}
		}
	}
}
MOTION
Frames: 8
Frame Time: 0.008333333333333333
19.072600 17.369900 -24.156000 -3.132000 -6.443800 2.490800 0.000000 0.000000 0.000000 -17.570700 -2.049900 -8.265000 2.432200 9.713500 28.053800 1.152400 -3.184400 -19.483000 0.000900 -0.194100 -0.533400 0.000000 0.000000 0.000000 25.863100 1.334800 -8.764000 -2.668500 -10.138000 29.424800 -1.349500 2.815500 -21.218400 -0.269500 -3.339400 9.225100 1.009400 -1.523400 -0.290500 3.903100 -1.998600 -1.300200 3.456800 -0.991900 -1.066200 -13.430100 -6.774800 -10.356600 2.377400 -7.518900 27.566400 2.128400 -4.568800 11.328400 0.000000 0.000000 0.000000 -2.797300 3.029700 -28.594800 13.267200 -21.677500 2.551100 10.302200 7.290200 -26.187800 0.000000 0.000000 0.000000 -7.125000 0.000000 0.000000 -20.930900 55.287500 5.461300 0.000000 0.000000 0.000000 -4.990300 8.877900 23.221300 -16.784800 -26.573200 -3.990600 -17.384700 -10.383700 -1.897400 0.000000 0.000000 0.000000 7.125000 0.000000 -0.000000 7.094000 27.967500 2.959500
19.109675 17.385236 -24.159121 -2.838033 -6.077271 2.832425 0.000000 0.000000 0.000000 -17.924482 -1.577828 -8.842637 2.372965 9.603149 27.700969 1.081713 -3.799682 -18.758346 0.000881 -0.160932 -0.442232 0.000000 0.000000 0.000000 25.428133 1.569385 -9.270264 -2.705152 -10.201685 29.632352 -1.370272 2.233124 -21.513706 -0.248414 -3.206880 8.855290 1.278606 -1.590891 -0.163526 4.092159 -2.076023 -1.430313 3.508726 -1.030973 -1.269850 -13.716712 -7.346530 -9.710915 2.414621 -8.355583 25.977387 2.095902 -4.935814 10.695977 0.000000 0.000000 0.000000 -2.779008 3.865996 -28.033138 12.981347 -21.259926 2.446566 12.613408 7.632258 -21.935696 0.000000 0.000000 0.000000 -7.125000 0.000000 0.000000 -16.431535 51.658612 2.770427 0.000000 0.000000 0.000000 -4.926849 9.827881 21.462597 -15.811419 -25.264231 -3.565105 -15.930365 -8.592564 -0.081517 0.000000 0.000000 0.000000 7.125000 0.000000 0.000000 8.354873 29.842461 3.119198
19.133830 17.382617 -24.158946 -2.448506 -5.543950 2.761469 0.000000 0.000000 0.000000 -18.337685 -1.338289 -8.915705 2.357497 9.574112 27.608200 1.050747 -4.588666 -18.386130 0.007047 0.535124 1.470356 0.000000 0.000000 0.000000 25.004809 1.662165 -9.328453 -2.738221 -10.258647 29.818493 -1.388649 1.454588 -21.856846 -0.176991 -2.709681 7.471472 0.998110 -1.930377 0.129667 4.643281 -2.520132 -1.349490 4.251689 -1.248678 -1.292562 -14.170770 -8.145835 -8.062953 1.617428 -9.406588 22.559803 1.839810 -5.465771 9.240945 0.000000 0.000000 0.000000 -3.253517 4.622441 -27.636830 12.724476 -20.882212 2.354187 12.797228 7.679522 -22.867517 0.000000 0.000000 0.000000 -7.125000 0.000000 0.000000 -16.747323 52.567082 3.291240 0.000000 0.000000 0.000000 -5.232980 10.263323 19.515242 -14.352771 -23.236656 -2.965933 -14.607448 -9.071440 0.015748 0.000000 0.000000 0.000000 7.125000 0.000000 0.000000 9.396759 29.927936 3.497872
19.162920 17.378199 -24.142246 -2.280296 -4.966626 2.667004 0.000000 0.000000 0.000000 -18.554138 -1.048362 -8.936121 2.342004 9.544868 27.515124 1.036048 -5.280522 -18.200230 0.000179 0.070061 0.192490 0.000000 0.000000 0.000000 24.742849 1.368223 -9.326144 -2.775569 -10.322661 30.027957 -1.383357 1.417626 -21.823437 -0.251886 -3.228009 8.914241 1.325917 -2.030122 0.147398 4.723584 -2.655593 -1.190944 4.147996 -1.321245 -1.141654 -13.712318 -9.154755 -6.147305 1.392112 -11.100320 19.443750 1.628330 -6.180509 7.922847 0.000000 0.000000 0.000000 -2.852115 4.981014 -27.531887 12.387662 -20.383439 2.235484 9.626288 7.071386 -26.479158 0.000000 0.000000 0.000000 -7.125000 0.000000 0.000000 -21.787354 55.424640 5.783019 0.000000 0.000000 0.000000 -4.195989 10.253482 16.619597 -12.651446 -20.774106 -2.328378 -13.399691 -9.170363 -0.496288 0.000000 0.000000 0.000000 7.125000 0.000000 0.000000 10.285247 29.394550 3.969859
19.185858 17.370362 -24.141138 -1.917069 -4.670584 2.370468 0.000000 0.000000 0.000000 -19.058161 -1.128084 -8.516855 2.312224 9.488266 27.334806 1.032208 -5.317378 -18.163857 0.001689 0.246409 0.676958 0.000000 0.000000 0.000000 24.272173 1.153090 -9.192676 -2.821821 -10.400960 30.285071 -1.378566 1.204972 -21.843255 -0.285685 -3.434322 9.490626 0.880288 -2.452301 0.696131 5.242815 -3.202051 -1.145930 4.971251 -1.589024 -1.316239 -14.136895 -9.519834 -5.171490 1.338113 -11.677277 17.625331 1.693098 -6.447392 7.220758 0.000000 0.000000 0.000000 -3.565416 5.735946 -25.799452 12.294688 -20.245152 2.203201 10.351103 8.135294 -24.306160 0.000000 0.000000 0.000000 -7.125000 0.000000 0.000000 -19.797188 53.532623 4.289447 0.000000 0.000000 0.000000 -4.037270 10.101668 13.913499 -11.517619 -19.077228 -1.941756 -10.316363 -10.421347 -1.202927 0.000000 0.000000 0.000000 7.125000 0.000000 0.000000 12.579573 28.658930 5.120048
19.204386 17.361435 -24.130603 -1.968182 -4.806211 2.198981 0.000000 0.000000 0.000000 -18.934013 -0.199516 -8.555224 2.301319 9.467337 27.268518 0.986924 -6.343196 -17.724818 0.004032 0.404757 1.112081 0.000000 0.000000 0.000000 24.230950 1.256404 -9.043089 -2.860141 -10.465101 30.496272 -1.497820 1.746121 -22.645089 -0.168331 -2.643318 7.287373 1.096435 -2.492990 0.781070 5.563469 -3.262110 -0.864576 5.180861 -1.625456 -1.062937 -14.302403 -9.648408 -4.846039 1.616673 -11.924570 16.537738 1.819557 -6.526213 6.854874 0.000000 0.000000 0.000000 -3.715963 5.551958 -25.710902 12.006957 -19.815035 2.104618 10.320480 8.498451 -24.891306 0.000000 0.000000 0.000000 -7.125000 0.000000 0.000000 -20.149465 54.078301 4.640372 0.000000 0.000000 0.000000 -3.160852 9.651769 11.768896 -11.340657 -18.808569 -1.884262 -9.550014 -13.830814 -1.845365 0.000000 0.000000 0.000000 7.125000 0.000000 0.000000 13.087495 28.016561 5.540092
19.219230 17.352082 -24.123969 -1.444999 -5.035576 2.043070 0.000000 0.000000 0.000000 -19.457853 0.781700 -8.550212 2.246015 9.360711 26.930372 0.932899 -7.150784 -17.252223 0.002843 0.332195 0.912828 0.000000 0.000000 0.000000 23.486263 0.858302 -9.380526 -2.980894 -10.664044 31.155095 -1.547970 2.433924 -22.866181 -0.161830 -2.591885 7.144472 0.858423 -2.313765 0.832538 5.351111 -3.036353 -0.636094 5.085235 -1.514467 -0.873949 -13.791392 -9.456194 -5.036263 1.889036 -11.737919 16.843076 1.838279 -6.392530 6.950428 0.000000 0.000000 0.000000 -3.223387 5.397083 -26.126711 12.222785 -20.137870 2.178458 9.953186 8.162727 -23.839425 0.000000 0.000000 0.000000 -7.125000 0.000000 0.000000 -19.928322 53.023554 4.062655 0.000000 0.000000 0.000000 -1.899404 9.693347 12.284564 -12.108197 -19.966729 -2.139135 -11.921802 -14.510426 -2.828168 0.000000 0.000000 0.000000 7.125000 0.000000 0.000000 11.188248 27.042590 4.967305
19.217987 17.333064 -24.124391 -1.516911 -5.150201 2.015645 0.000000 0.000000 0.000000 -19.269021 1.239555 -8.647216 2.248833 9.366210 26.947762 0.941344 -7.899335 -17.378011 0.003756 0.331771 0.911611 0.000000 0.000000 0.000000 23.529440 0.723864 -9.672770 -3.064767 -10.799188 31.605566 -1.563283 2.601679 -22.945593 -0.167209 -2.632551 7.257530 1.120530 -2.431690 0.983897 5.409208 -3.184757 -0.610409 5.006252 -1.590156 -0.931364 -12.854136 -8.489332 -5.762246 1.082265 -10.285413 18.084028 1.539461 -5.727811 7.267482 0.000000 0.000000 0.000000 -2.940088 5.629974 -26.368918 12.911837 -21.157788 2.421475 11.596830 7.476128 -22.194463 0.000000 0.000000 0.000000 -7.125000 0.000000 0.000000 -17.560722 51.725603 3.046121 0.000000 0.000000 0.000000 -1.867425 9.225957 13.453892 -12.154043 -20.035293 -2.154783 -13.829926 -12.920488 -3.091071 0.000000 0.000000 0.000000 7.125000 0.000000 0.000000 9.722975 26.766265 4.361617
